<svg version="1.1" id="Layer_1" xmlns="http://www.w3.org/2000/svg" xmlns:xlink="http://www.w3.org/1999/xlink" x="0px"
	y="0px" width="100%" viewBox="0 0 2278 725" enable-background="new 0 0 2278 725" xml:space="preserve">
	<path fill="#FFFFFF00" opacity="1.000000" stroke="none" d="
M655.000000,1.000002 
	C1196.279175,1.000000 1737.558228,1.000000 2278.918701,1.000000 
	C2278.918701,242.588226 2278.918701,484.176514 2278.918701,726.000000 
	C1727.300659,726.000000 1175.601196,726.000000 623.318359,725.611511 
	C619.844788,724.499084 616.954651,723.775208 614.461670,723.028442 
	C638.540710,717.559631 659.150269,706.163574 677.290833,690.248474 
	C694.971130,674.737244 708.339905,655.987915 716.514160,633.930298 
	C720.194885,623.998169 723.264038,613.598267 724.716919,603.147278 
	C726.283997,591.874878 725.906494,580.294800 725.913696,568.848633 
	C725.994141,440.693665 726.023560,312.538696 725.958130,184.383789 
	C725.948364,165.280319 725.380920,146.177094 725.059509,127.073959 
	C725.045654,126.251884 725.034424,125.396797 724.813477,124.616089 
	C721.590393,113.227196 719.111328,101.549416 714.890259,90.540466 
	C709.212830,75.733513 701.383240,61.915222 690.049683,50.499317 
	C684.344482,44.752651 677.751587,39.813137 672.526672,33.684563 
	C667.247864,27.492807 658.168701,27.118769 653.665344,20.162857 
	C653.283508,19.573082 652.297119,19.326664 651.548401,19.029776 
	C641.185364,14.920696 630.918518,10.534406 620.403931,6.856739 
	C614.859802,4.917573 608.880310,4.222963 603.245239,2.556779 
	C619.128418,2.099486 634.864014,2.078030 650.598877,1.961015 
	C652.068176,1.950089 653.533081,1.334725 655.000000,1.000002 
M1687.985840,318.985901 
	C1687.985840,318.985901 1687.963379,318.914276 1687.420288,319.028198 
	C1687.251587,319.339996 1687.082886,319.651794 1686.985840,319.985901 
	C1686.985840,319.985901 1686.963379,319.914276 1686.420410,320.028229 
	C1686.251709,320.340027 1686.083008,320.651825 1685.985840,320.985901 
	C1685.985840,320.985901 1685.963379,320.914276 1685.420288,321.028229 
	C1685.251587,321.340027 1685.082886,321.651825 1684.986084,321.986053 
	C1684.986084,321.986053 1684.961670,321.914856 1684.423340,322.025421 
	C1684.254272,322.333130 1684.085205,322.640839 1683.990479,322.990570 
	C1683.990479,322.990570 1683.947754,322.916534 1683.414795,323.029755 
	C1683.248657,323.335693 1683.082520,323.641663 1682.990723,323.990814 
	C1682.990723,323.990814 1682.947632,323.916534 1682.414917,324.029785 
	C1682.248779,324.335724 1682.082642,324.641663 1681.990723,324.990967 
	C1681.990723,324.990967 1681.947632,324.916565 1681.414917,325.029785 
	C1681.248779,325.335724 1681.082642,325.641632 1680.990723,325.990845 
	C1680.990723,325.990845 1680.947510,325.916534 1680.414917,326.029785 
	C1680.248779,326.335693 1680.082642,326.641602 1679.990601,326.990784 
	C1679.990601,326.990784 1679.948486,326.916138 1679.411377,327.032135 
	C1679.245850,327.341949 1679.080322,327.651764 1678.986328,327.986145 
	C1678.986328,327.986145 1678.963379,327.914276 1678.420288,328.028198 
	C1678.251587,328.339996 1678.082886,328.651794 1677.985840,328.985901 
	C1677.985840,328.985901 1677.963379,328.914276 1677.420288,329.028168 
	C1677.251587,329.339966 1677.082886,329.651764 1676.985840,329.985901 
	C1676.985840,329.985901 1676.963379,329.914276 1676.420410,330.028198 
	C1676.251709,330.340027 1676.083008,330.651825 1675.985840,330.985901 
	C1675.985840,330.985901 1675.963379,330.914276 1675.420288,331.028198 
	C1675.251587,331.339996 1675.082886,331.651794 1674.985840,331.985901 
	C1674.985840,331.985901 1674.963379,331.914276 1674.420288,332.028198 
	C1674.251587,332.340027 1674.082886,332.651825 1673.985840,332.985901 
	C1673.985840,332.985901 1673.963501,332.914276 1673.420410,333.028137 
	C1673.251709,333.339966 1673.082886,333.651825 1672.985840,333.985901 
	C1672.985840,333.985901 1672.963501,333.914307 1672.420410,334.028137 
	C1672.251709,334.339996 1672.082886,334.651825 1671.985718,334.985779 
	C1671.985718,334.985779 1671.963989,334.914154 1671.418701,335.030334 
	C1671.251099,335.344421 1671.083496,335.658539 1670.987061,335.986328 
	C1670.987061,335.986328 1670.987061,335.913849 1670.380981,336.055786 
	C1670.121216,336.379486 1669.861450,336.703217 1669.027466,337.259338 
	C1667.342041,339.091827 1665.656616,340.924316 1663.269287,343.297485 
	C1663.269287,346.845947 1663.269287,350.394409 1663.269287,354.259766 
	C1669.417480,354.259766 1675.197510,354.259766 1680.972534,354.659332 
	C1680.972534,354.659332 1681.136841,355.023621 1681.034668,355.955017 
	C1681.008301,393.218384 1680.972778,430.481750 1680.998413,467.745087 
	C1680.999146,468.894531 1681.633667,470.043488 1681.997192,472.055084 
	C1680.503540,481.806366 1689.654541,495.481415 1700.294678,499.255920 
	C1714.950806,504.455078 1728.938110,504.801239 1743.188721,497.648163 
	C1756.117432,491.158508 1763.950928,480.403717 1770.201416,468.123901 
	C1770.953491,466.646454 1769.980835,462.606720 1768.906250,462.212677 
	C1766.138672,461.197632 1762.661011,457.344421 1759.865479,462.850403 
	C1757.981079,466.561768 1755.499146,470.051758 1752.833984,473.267273 
	C1747.535278,479.660248 1736.480469,478.352692 1732.970581,470.529053 
	C1732.656860,470.325958 1732.343140,470.122864 1732.004883,469.998657 
	C1732.004883,469.998657 1732.084351,470.021332 1731.978760,469.278381 
	C1731.646362,468.430847 1731.314087,467.583313 1731.072388,466.404694 
	C1731.072388,466.404694 1730.899048,466.108398 1731.001221,465.150421 
	C1731.004028,453.585175 1731.039429,442.019775 1730.969604,430.454956 
	C1730.960571,428.952087 1730.409668,427.452515 1730.010132,425.024994 
	C1730.033325,401.344452 1730.056641,377.663940 1729.986694,353.986816 
	C1729.986694,353.986816 1729.984009,354.080139 1730.923218,354.007812 
	C1741.501099,354.007812 1752.078979,354.007812 1762.668945,354.007812 
	C1762.668945,348.091553 1762.668945,342.576263 1762.668945,336.919983 
	C1751.553101,336.919983 1740.768188,336.919983 1729.986816,337.013245 
	C1729.986816,337.013245 1730.080078,337.016083 1730.007690,336.076935 
	C1730.005371,318.556824 1730.025635,301.036652 1729.959473,283.516785 
	C1729.953979,282.061462 1729.364502,280.608368 1728.170044,279.025970 
	C1724.014648,278.861938 1719.796021,278.565948 1716.884521,282.434875 
	C1709.186768,292.664246 1701.517822,302.915314 1693.325806,313.341217 
	C1692.858154,313.899170 1692.390503,314.457123 1692.004150,314.992371 
	C1692.004150,314.992371 1691.980835,314.911316 1691.431396,315.023682 
	C1691.259033,315.337128 1691.086548,315.650574 1690.985840,315.985687 
	C1690.985840,315.985687 1690.963379,315.914276 1690.420166,316.028137 
	C1690.251465,316.339935 1690.082764,316.651733 1689.985840,316.985901 
	C1689.985840,316.985901 1689.963379,316.914276 1689.420410,317.028229 
	C1689.251709,317.340027 1689.083008,317.651825 1688.985840,317.985901 
	C1688.985840,317.985901 1688.963379,317.914276 1688.420288,318.028229 
	C1688.251587,318.340027 1688.082886,318.651825 1687.985840,318.985901 
M1350.978638,282.008362 
	C1350.978638,282.008362 1350.904053,282.002930 1350.992554,282.916260 
	C1351.328247,293.496063 1351.929932,304.075226 1351.953857,314.655731 
	C1352.059814,361.469269 1351.989624,408.283112 1352.040649,455.096832 
	C1352.042480,456.769379 1352.647583,458.441284 1352.943970,461.036224 
	C1352.943970,474.981598 1352.943970,488.927002 1352.943970,503.568420 
	C1366.552490,500.780029 1374.701538,490.294800 1384.874756,484.910248 
	C1393.144775,489.982819 1400.916260,495.834473 1409.555420,499.791443 
	C1422.167480,505.568146 1436.002197,504.146362 1448.972534,501.696259 
	C1471.009521,497.533569 1487.356689,484.300598 1498.490601,464.938232 
	C1505.004639,453.610260 1509.282715,441.503113 1509.046509,428.124237 
	C1508.843872,416.642334 1509.878296,405.042908 1508.572510,393.701904 
	C1507.133667,381.206665 1501.260864,369.977570 1493.979736,359.676849 
	C1487.114624,349.964569 1478.848633,342.010590 1467.414917,337.656403 
	C1458.828247,334.386444 1450.033203,333.614166 1441.021118,334.011780 
	C1431.466797,334.433289 1422.459473,336.805634 1414.416626,342.121307 
	C1410.339233,344.816132 1406.466431,347.820648 1401.711548,351.255585 
	C1401.711548,321.127655 1401.711548,292.202789 1401.711548,263.359497 
	C1378.949951,263.359497 1356.553223,263.359497 1334.178833,263.359497 
	C1333.780762,271.344910 1333.883545,271.053284 1340.722656,273.462799 
	C1344.102051,274.653381 1347.022095,277.148132 1350.010498,279.745667 
	C1350.319214,280.520569 1350.627930,281.295471 1350.978638,282.008362 
M1058.135742,460.388062 
	C1057.806519,475.906067 1057.477295,491.424042 1056.998047,507.658386 
	C1052.441650,519.026550 1037.601318,521.939941 1028.655884,518.839844 
	C1024.260986,517.316711 1021.887268,511.656067 1024.176025,507.286987 
	C1026.859131,502.165222 1029.045288,496.614136 1030.385376,490.996063 
	C1032.570312,481.835175 1030.264404,473.249451 1023.304749,466.868896 
	C1016.650818,460.768555 1008.232788,459.187500 999.593201,461.872223 
	C982.115601,467.303375 979.181030,481.318756 982.783875,495.928772 
	C987.761475,516.113525 1003.313171,526.791443 1022.587524,530.627502 
	C1033.354248,532.770447 1044.910034,531.430542 1056.079590,530.948608 
	C1070.750366,530.315735 1082.941040,523.506836 1093.668701,513.939026 
	C1109.924805,499.440491 1115.771606,480.436127 1115.996094,459.474152 
	C1116.322510,428.989594 1116.078979,398.498962 1116.856445,367.620209 
	C1116.855103,344.100006 1116.853760,320.579773 1116.975952,296.219635 
	C1118.329712,287.661194 1119.073364,278.693512 1129.728760,276.044678 
	C1134.117554,274.953644 1138.505249,273.479401 1142.964478,273.154938 
	C1147.523804,272.823181 1148.142212,270.712830 1148.096436,266.840881 
	C1148.041016,262.147583 1144.948120,263.016144 1142.243896,263.014771 
	C1104.481079,262.995331 1066.718384,263.001617 1028.955566,263.001617 
	C1027.364990,263.001617 1025.774292,263.001617 1024.173096,263.001617 
	C1024.173096,266.325531 1024.173096,268.951813 1024.173096,271.762665 
	C1035.023071,274.575256 1047.528442,272.048218 1056.071289,282.811462 
	C1056.700439,285.276703 1057.800537,287.726501 1057.881958,290.209686 
	C1058.385376,305.573547 1058.918823,320.944244 1058.959961,336.313934 
	C1059.070435,377.530792 1058.937500,418.748230 1058.135742,460.388062 
M1639.119751,333.967102 
	C1636.346313,334.679230 1632.691162,332.070160 1630.836182,336.284546 
	C1628.838989,340.822021 1625.351562,341.464539 1620.794189,340.440704 
	C1607.327515,337.415527 1594.080444,333.579468 1579.949219,333.837891 
	C1562.724731,334.152802 1549.347900,341.109131 1539.578857,354.844452 
	C1528.435303,370.512421 1527.419312,393.014832 1539.076904,409.590302 
	C1545.772949,419.111053 1554.870117,425.729523 1565.014404,430.982727 
	C1575.784058,436.559875 1586.880737,441.518799 1597.541016,447.290344 
	C1611.986206,455.111206 1615.381104,461.162628 1611.801514,477.033936 
	C1611.079346,480.236084 1608.817261,484.248993 1606.113647,485.624359 
	C1598.657104,489.417542 1590.810181,491.914978 1581.874512,490.127502 
	C1569.402710,487.632690 1558.913940,482.177277 1552.093140,471.490540 
	C1548.158569,465.325714 1545.594971,458.185089 1543.112305,451.234344 
	C1541.744751,447.405365 1540.284302,445.181274 1535.937622,445.969849 
	C1534.388184,446.250885 1532.770142,446.154236 1531.226807,446.227936 
	C1531.226807,465.336731 1531.226807,483.938507 1531.226807,502.507660 
	C1539.722046,503.673309 1539.920898,503.790802 1543.983032,496.917877 
	C1545.848389,493.761749 1548.362427,493.623779 1551.149658,494.145874 
	C1553.842407,494.650330 1556.453491,495.648682 1559.059570,496.548523 
	C1570.581543,500.527130 1582.179443,503.217590 1594.611572,503.194702 
	C1612.776245,503.161255 1627.449951,497.091064 1638.225952,482.273956 
	C1647.757568,469.167847 1651.475708,454.812683 1647.490967,438.823364 
	C1642.829590,420.119812 1628.820923,410.170532 1612.973511,401.903992 
	C1601.014282,395.665710 1588.675171,390.012543 1577.300293,382.838196 
	C1566.193848,375.833221 1562.915161,361.977661 1574.190796,351.425934 
	C1579.404175,346.547455 1585.571655,346.617157 1592.183838,346.934082 
	C1602.277954,347.417847 1610.985474,351.317078 1616.924561,358.852844 
	C1622.634766,366.098297 1626.351807,374.914764 1630.999023,383.911255 
	C1634.176392,384.418365 1637.353882,384.925507 1640.931763,385.496552 
	C1640.931763,368.090759 1640.936646,351.549042 1640.892334,335.007416 
	C1640.891479,334.713318 1640.300415,334.420776 1639.119751,333.967102 
M2002.978760,394.211151 
	C2003.333618,391.823059 2003.617310,389.421844 2004.056274,387.049286 
	C2005.561157,378.916992 2009.353760,372.038300 2015.834473,366.862122 
	C2019.658447,363.808014 2024.938721,364.320404 2028.305420,367.844421 
	C2031.256470,370.933228 2033.870605,374.352692 2036.904297,377.352203 
	C2046.057373,386.402161 2057.570557,386.307526 2066.152588,381.010590 
	C2071.880615,377.475220 2076.633545,368.267792 2075.271973,357.286835 
	C2073.903809,346.251038 2067.409912,339.956085 2058.176270,335.756470 
	C2052.497314,333.173615 2046.144897,332.918701 2040.164551,334.174927 
	C2034.888794,335.283112 2029.051392,336.703888 2024.977783,339.911560 
	C2017.095581,346.118347 2010.280151,353.679840 2002.165283,360.913727 
	C2001.776123,359.502441 2001.077515,358.096985 2001.050903,356.678864 
	C2000.929565,350.244781 2000.997803,343.807129 2000.997803,337.063202 
	C1978.756592,337.063202 1956.873779,337.059540 1934.991089,337.102661 
	C1934.703247,337.103241 1934.416504,337.697296 1933.966064,338.905701 
	C1933.330444,344.209747 1933.595703,348.225586 1940.849731,348.689758 
	C1945.929443,349.014801 1949.918457,352.500977 1951.010742,358.978668 
	C1951.042114,398.347961 1951.073486,437.717255 1950.706055,477.693085 
	C1948.320190,486.071991 1942.147095,489.145813 1934.268799,489.046814 
	C1934.268799,492.313507 1934.268799,495.052765 1934.268799,497.730957 
	C1965.285034,497.730957 1995.966919,497.730957 2026.618774,497.730957 
	C2027.434692,490.026398 2027.420898,490.106567 2020.604126,488.929932 
	C2018.421875,488.553223 2016.377930,487.352936 2014.195068,487.007568 
	C2007.634521,485.969543 2004.972412,481.583954 2004.077515,475.648834 
	C2003.542480,472.099884 2003.251465,468.514160 2002.989258,464.020935 
	C2002.992798,455.652039 2003.045288,447.282623 2002.958374,438.914673 
	C2002.941284,437.270020 2002.385742,435.630951 2002.010620,433.085175 
	C2002.033325,430.060333 2002.055908,427.035522 2002.856567,423.620026 
	C2002.855103,414.099945 2002.853760,404.579865 2002.978760,394.211151 
M1849.043213,413.054932 
	C1872.632568,413.054932 1896.221924,413.054932 1920.562012,413.054932 
	C1919.658569,406.841034 1918.767456,401.366852 1918.080078,395.867249 
	C1915.448730,374.811798 1906.837524,357.057617 1889.049072,344.756195 
	C1883.913940,341.205017 1878.145386,337.840546 1872.180054,336.379913 
	C1861.705933,333.815186 1850.944702,332.955170 1840.006592,334.865875 
	C1819.959473,338.367706 1805.276123,349.910919 1794.092651,365.858612 
	C1784.073730,380.145508 1781.201904,396.988220 1781.035400,414.200470 
	C1780.968384,421.127838 1781.512939,428.068848 1781.961426,434.991882 
	C1783.152710,453.386444 1789.423950,469.494965 1802.886230,482.604218 
	C1823.860840,503.028687 1848.619751,507.323853 1876.013916,499.982513 
	C1890.962402,495.976562 1901.251099,485.213226 1910.957886,473.974731 
	C1914.612183,469.743896 1917.793823,465.104919 1921.104736,460.764893 
	C1914.073486,453.469299 1913.010620,453.657410 1906.323486,459.959686 
	C1901.576660,464.433319 1896.480103,468.632904 1891.103394,472.318329 
	C1883.207275,477.730530 1874.089111,477.923401 1865.075806,476.376190 
	C1850.807007,473.926788 1843.680542,463.337799 1839.188110,451.075256 
	C1835.853638,441.973328 1834.207031,432.253052 1831.914062,421.924011 
	C1831.914062,419.368286 1831.914062,416.812561 1831.914062,414.006104 
	C1834.276489,414.006104 1836.055542,414.111816 1837.817505,413.983582 
	C1841.257080,413.733276 1844.687378,413.352264 1849.043213,413.054932 
M1258.361572,334.899353 
	C1256.982056,334.563965 1255.604614,333.950653 1254.222534,333.939484 
	C1246.727173,333.878632 1239.228027,333.854279 1231.734985,334.026428 
	C1215.876099,334.390717 1202.219604,340.779755 1190.656372,351.015167 
	C1164.613647,374.067657 1158.373047,404.004425 1163.196899,436.905304 
	C1165.801270,454.668610 1174.547974,469.517273 1187.484131,482.265137 
	C1206.888672,501.387238 1230.290771,507.183319 1256.048462,502.685425 
	C1285.361694,497.566589 1303.554810,478.324860 1314.005005,451.373962 
	C1320.274780,435.204376 1321.318604,418.558380 1318.198242,401.285004 
	C1313.961914,377.833313 1302.579224,359.403442 1283.323486,345.573212 
	C1276.007446,340.318634 1267.735352,337.422913 1258.361572,334.899353 
z" />
	<path fill="#2CB1BC" opacity="1.000000" stroke="none" d="
M603.097412,2.966408 
	C608.880310,4.222963 614.859802,4.917573 620.403931,6.856739 
	C630.918518,10.534406 641.185364,14.920696 651.548401,19.029776 
	C652.297119,19.326664 653.283508,19.573082 653.665344,20.162857 
	C658.168701,27.118769 667.247864,27.492807 672.526672,33.684563 
	C677.751587,39.813137 684.344482,44.752651 690.049683,50.499317 
	C701.383240,61.915222 709.212830,75.733513 714.890259,90.540466 
	C719.111328,101.549416 721.590393,113.227196 724.813477,124.616089 
	C725.034424,125.396797 725.045654,126.251884 725.059509,127.073959 
	C725.380920,146.177094 725.948364,165.280319 725.958130,184.383789 
	C726.023560,312.538696 725.994141,440.693665 725.913696,568.848633 
	C725.906494,580.294800 726.283997,591.874878 724.716919,603.147278 
	C723.264038,613.598267 720.194885,623.998169 716.514160,633.930298 
	C708.339905,655.987915 694.971130,674.737244 677.290833,690.248474 
	C659.150269,706.163574 638.540710,717.559631 614.037476,722.983765 
	C607.477417,723.974670 601.738708,724.987305 596.000000,726.000000 
	C440.979095,726.000000 285.958221,726.000000 130.150940,725.774292 
	C125.188705,725.035339 121.012863,724.522156 116.428764,724.021545 
	C100.110832,721.077271 85.337883,715.120667 71.494324,706.859192 
	C55.879784,697.540955 42.239662,685.829285 31.127998,671.442444 
	C22.187813,659.867126 14.616604,647.335022 9.860911,633.425232 
	C7.044919,625.188782 5.250086,616.603271 3.054911,607.724487 
	C2.732245,602.518372 2.350741,597.762451 2.277650,592.721924 
	C2.723904,590.960510 2.982284,589.483765 2.982466,588.006958 
	C3.000825,438.721985 3.003132,289.437042 2.956958,140.152084 
	C2.956426,138.432373 2.311921,136.712860 1.945423,134.547043 
	C2.280749,129.341751 2.638673,124.582680 2.981507,119.408073 
	C3.006778,117.834602 2.843658,116.625809 3.118346,115.526413 
	C6.636822,101.444389 11.833492,88.019386 18.883131,75.311142 
	C28.849171,57.345562 41.731430,41.763481 58.634357,30.120741 
	C68.564926,23.280561 79.306511,17.261824 90.401070,12.571346 
	C100.731537,8.203899 112.012695,6.085145 123.316895,3.023774 
	C128.464081,2.655906 133.169693,2.240726 138.339645,1.910002 
	C285.082794,1.995929 431.361633,1.998687 577.640442,1.991770 
	C581.467224,1.991589 585.294067,1.885909 589.557312,1.858598 
	C594.361633,2.247313 598.729553,2.606860 603.097412,2.966408 
M194.561920,481.919891 
	C207.572601,517.695374 233.560318,539.863464 269.184387,550.566528 
	C298.069580,559.244995 327.690552,560.434875 357.605530,555.066101 
	C419.394226,543.977112 462.524963,494.085266 462.820068,431.220612 
	C463.269104,335.569733 462.978851,239.915421 462.983795,144.262558 
	C462.983856,142.996323 462.738373,141.730072 462.603027,140.420105 
	C434.340515,140.420105 406.426086,140.420105 377.999603,140.420105 
	C377.999603,142.662552 377.999603,144.618423 377.999603,146.574280 
	C377.999542,238.727798 378.049286,330.881378 377.911194,423.034698 
	C377.899292,430.979462 377.152863,439.005920 375.866486,446.849945 
	C372.506714,467.337311 356.695892,486.923218 333.342590,489.090881 
	C326.785583,489.699493 320.065002,489.658569 313.512268,488.996674 
	C291.760315,486.799683 277.801331,473.726959 274.031281,452.301270 
	C272.802460,445.317535 272.152039,438.232086 271.247925,431.276764 
	C242.900589,431.276764 214.671280,431.276764 186.403854,431.276764 
	C186.749405,448.551422 188.449280,465.196777 194.561920,481.919891 
z" />
	<path fill="#FFFFFF00" opacity="1.000000" stroke="none" d="
M122.875336,2.976462 
	C112.012695,6.085145 100.731537,8.203899 90.401070,12.571346 
	C79.306511,17.261824 68.564926,23.280561 58.634357,30.120741 
	C41.731430,41.763481 28.849171,57.345562 18.883131,75.311142 
	C11.833492,88.019386 6.636822,101.444389 3.118346,115.526413 
	C2.843658,116.625809 3.006778,117.834602 2.558929,119.299225 
	C2.102203,93.374168 2.070772,67.142349 1.961126,40.910866 
	C1.954278,39.272602 1.334575,37.636894 1.000000,36.000000 
	C1.000000,24.425369 1.000000,12.850740 1.000000,1.000000 
	C7.684871,1.000000 14.373524,1.000000 21.697474,1.409274 
	C54.224220,1.879807 86.115723,1.926923 118.006966,2.043368 
	C119.630875,2.049298 121.252594,2.651749 122.875336,2.976462 
z" />
	<path fill="#FFFFFF00" opacity="1.000000" stroke="none" d="
M2.996072,608.174683 
	C5.250086,616.603271 7.044919,625.188782 9.860911,633.425232 
	C14.616604,647.335022 22.187813,659.867126 31.127998,671.442444 
	C42.239662,685.829285 55.879784,697.540955 71.494324,706.859192 
	C85.337883,715.120667 100.110832,721.077271 116.313126,724.442139 
	C89.041145,724.899048 61.476471,724.930969 33.912098,725.039307 
	C32.273499,725.045776 30.637310,725.665588 29.000000,726.000000 
	C19.744423,726.000000 10.488846,726.000000 1.000000,726.000000 
	C1.000000,717.980652 1.000000,709.958984 1.409426,701.302612 
	C1.880266,671.441895 1.926148,642.215820 2.045007,612.990112 
	C2.051540,611.383667 2.665076,609.779785 2.996072,608.174683 
z" />
	<path fill="#2CB1BC" opacity="1.000000" stroke="none" d="
M1.968023,134.993256 
	C2.311921,136.712860 2.956426,138.432373 2.956958,140.152084 
	C3.003132,289.437042 3.000825,438.721985 2.982466,588.006958 
	C2.982284,589.483765 2.723904,590.960510 2.035284,592.736816 
	C1.484504,593.036255 1.000000,593.000000 1.000000,593.000000 
	C1.000000,440.645782 1.000000,288.291534 1.241880,135.448883 
	C1.483759,134.960434 1.968023,134.993256 1.968023,134.993256 
z" />
	<path fill="#2CB1BC" opacity="1.000000" stroke="none" d="
M589.120850,1.829429 
	C585.294067,1.885909 581.467224,1.991589 577.640442,1.991770 
	C431.361633,1.998687 285.082794,1.995929 138.376083,1.704598 
	C137.948181,1.414737 138.000000,1.000000 138.000000,1.000000 
	C288.025848,1.000000 438.051666,1.000000 588.563354,1.208169 
	C589.049255,1.416338 589.120850,1.829429 589.120850,1.829429 
z" />
	<path fill="#FDFEFE" opacity="1.000000" stroke="none" d="
M137.531342,1.000000 
	C138.000000,1.000000 137.948181,1.414737 137.911743,1.620142 
	C133.169693,2.240726 128.464081,2.655906 123.316895,3.023774 
	C121.252594,2.651749 119.630875,2.049298 118.006966,2.043368 
	C86.115723,1.926923 54.224220,1.879807 22.166386,1.409274 
	C60.354229,1.000000 98.708458,1.000000 137.531342,1.000000 
z" />
	<path fill="#FDFEFE" opacity="1.000000" stroke="none" d="
M1.000000,593.468628 
	C1.000000,593.000000 1.484504,593.036255 1.726871,593.021362 
	C2.350741,597.762451 2.732245,602.518372 3.054909,607.724487 
	C2.665076,609.779785 2.051540,611.383667 2.045007,612.990112 
	C1.926148,642.215820 1.880266,671.441895 1.409426,700.833923 
	C1.000000,665.312439 1.000000,629.624878 1.000000,593.468628 
z" />
	<path fill="#FCFEFE" opacity="1.000000" stroke="none" d="
M29.468658,726.000000 
	C30.637310,725.665588 32.273499,725.045776 33.912098,725.039307 
	C61.476471,724.930969 89.041145,724.899048 116.721390,724.429565 
	C121.012863,724.522156 125.188705,725.035339 129.682281,725.774292 
	C96.645775,726.000000 63.291542,726.000000 29.468658,726.000000 
z" />
	<path fill="#FCFDFE" opacity="1.000000" stroke="none" d="
M1.945424,134.547043 
	C1.968023,134.993256 1.483759,134.960434 1.241880,134.980225 
	C1.000000,102.312439 1.000000,69.624878 1.000000,36.468658 
	C1.334575,37.636894 1.954278,39.272602 1.961126,40.910866 
	C2.070772,67.142349 2.102203,93.374168 2.574019,119.714752 
	C2.638673,124.582680 2.280749,129.341751 1.945424,134.547043 
z" />
	<path fill="#FCFDFE" opacity="1.000000" stroke="none" d="
M589.557312,1.858598 
	C589.120850,1.829429 589.049255,1.416338 589.024658,1.208169 
	C610.687561,1.000000 632.375122,1.000000 654.531372,1.000002 
	C653.533081,1.334725 652.068176,1.950089 650.598877,1.961015 
	C634.864014,2.078030 619.128418,2.099486 603.245239,2.556777 
	C598.729553,2.606860 594.361633,2.247313 589.557312,1.858598 
z" />
	<path fill="#F5FAFB" opacity="1.000000" stroke="none" d="
M596.468628,726.000000 
	C601.738708,724.987305 607.477417,723.974670 613.640320,723.006653 
	C616.954651,723.775208 619.844788,724.499084 622.867432,725.611511 
	C614.312439,726.000000 605.624817,726.000000 596.468628,726.000000 
z" />
	<path fill="#2CB1BC" opacity="1.000000" stroke="none" d="
M1350.149902,279.052734 
	C1347.022095,277.148132 1344.102051,274.653381 1340.722656,273.462799 
	C1333.883545,271.053284 1333.780762,271.344910 1334.178833,263.359497 
	C1356.553223,263.359497 1378.949951,263.359497 1401.711548,263.359497 
	C1401.711548,292.202789 1401.711548,321.127655 1401.711548,351.255585 
	C1406.466431,347.820648 1410.339233,344.816132 1414.416626,342.121307 
	C1422.459473,336.805634 1431.466797,334.433289 1441.021118,334.011780 
	C1450.033203,333.614166 1458.828247,334.386444 1467.414917,337.656403 
	C1478.848633,342.010590 1487.114624,349.964569 1493.979736,359.676849 
	C1501.260864,369.977570 1507.133667,381.206665 1508.572510,393.701904 
	C1509.878296,405.042908 1508.843872,416.642334 1509.046509,428.124237 
	C1509.282715,441.503113 1505.004639,453.610260 1498.490601,464.938232 
	C1487.356689,484.300598 1471.009521,497.533569 1448.972534,501.696259 
	C1436.002197,504.146362 1422.167480,505.568146 1409.555420,499.791443 
	C1400.916260,495.834473 1393.144775,489.982819 1384.874756,484.910248 
	C1374.701538,490.294800 1366.552490,500.780029 1352.943970,503.568420 
	C1352.943970,488.927002 1352.943970,474.981598 1353.018677,460.102448 
	C1353.104248,454.182404 1353.127808,449.196136 1353.124146,444.209869 
	C1353.086426,392.684906 1353.074097,341.159851 1352.914307,289.635284 
	C1352.906372,287.089111 1351.603760,284.546967 1350.904053,282.002930 
	C1350.904053,282.002930 1350.978638,282.008362 1351.142090,281.729309 
	C1350.920410,280.651062 1350.535156,279.851898 1350.149902,279.052734 
M1404.046509,473.752747 
	C1406.807617,478.191437 1408.608032,483.912567 1412.506348,486.833344 
	C1425.258545,496.387817 1442.123169,491.178650 1448.961792,475.273407 
	C1453.435547,464.868408 1455.569702,453.961670 1457.723267,442.282227 
	C1457.810547,429.309998 1457.917847,416.337799 1457.949097,403.365417 
	C1457.951660,402.286133 1457.441284,401.205597 1457.006470,399.281799 
	C1454.662476,389.350433 1453.061157,379.167358 1449.800293,369.546722 
	C1444.920532,355.149933 1431.962524,351.244965 1418.496826,355.293915 
	C1410.493774,357.700378 1406.259277,364.084473 1402.254395,371.721924 
	C1402.211670,403.656281 1402.140137,435.590729 1402.201050,467.524872 
	C1402.204590,469.355957 1403.289795,471.184906 1404.046509,473.752747 
z" />
	<path fill="#2CB1BC" opacity="1.000000" stroke="none" d="
M1116.078491,368.010925 
	C1116.078979,398.498962 1116.322510,428.989594 1115.996094,459.474152 
	C1115.771606,480.436127 1109.924805,499.440491 1093.668701,513.939026 
	C1082.941040,523.506836 1070.750366,530.315735 1056.079590,530.948608 
	C1044.910034,531.430542 1033.354248,532.770447 1022.587524,530.627502 
	C1003.313171,526.791443 987.761475,516.113525 982.783875,495.928772 
	C979.181030,481.318756 982.115601,467.303375 999.593201,461.872223 
	C1008.232788,459.187500 1016.650818,460.768555 1023.304749,466.868896 
	C1030.264404,473.249451 1032.570312,481.835175 1030.385376,490.996063 
	C1029.045288,496.614136 1026.859131,502.165222 1024.176025,507.286987 
	C1021.887268,511.656067 1024.260986,517.316711 1028.655884,518.839844 
	C1037.601318,521.939941 1052.441650,519.026550 1057.409668,507.104126 
	C1061.480835,491.177582 1059.399902,475.572510 1059.804321,459.601013 
	C1059.926758,442.995758 1059.968140,426.853760 1059.972656,410.711731 
	C1059.983032,372.934631 1060.129883,335.156128 1059.794556,297.382019 
	C1059.749146,292.252014 1057.252930,287.143799 1055.891479,282.025482 
	C1047.528442,272.048218 1035.023071,274.575256 1024.173096,271.762665 
	C1024.173096,268.951813 1024.173096,266.325531 1024.173096,263.001617 
	C1025.774292,263.001617 1027.364990,263.001617 1028.955566,263.001617 
	C1066.718384,263.001617 1104.481079,262.995331 1142.243896,263.014771 
	C1144.948120,263.016144 1148.041016,262.147583 1148.096436,266.840881 
	C1148.142212,270.712830 1147.523804,272.823181 1142.964478,273.154938 
	C1138.505249,273.479401 1134.117554,274.953644 1129.728760,276.044678 
	C1119.073364,278.693512 1118.329712,287.661194 1116.585938,296.900696 
	C1116.156860,321.058136 1116.117676,344.534546 1116.078491,368.010925 
z" />
	<path fill="#2CB1BC" opacity="1.000000" stroke="none" d="
M1258.798706,334.925079 
	C1267.735352,337.422913 1276.007446,340.318634 1283.323486,345.573212 
	C1302.579224,359.403442 1313.961914,377.833313 1318.198242,401.285004 
	C1321.318604,418.558380 1320.274780,435.204376 1314.005005,451.373962 
	C1303.554810,478.324860 1285.361694,497.566589 1256.048462,502.685425 
	C1230.290771,507.183319 1206.888672,501.387238 1187.484131,482.265137 
	C1174.547974,469.517273 1165.801270,454.668610 1163.196899,436.905304 
	C1158.373047,404.004425 1164.613647,374.067657 1190.656372,351.015167 
	C1202.219604,340.779755 1215.876099,334.390717 1231.734985,334.026428 
	C1239.228027,333.854279 1246.727173,333.878632 1254.222534,333.939484 
	C1255.604614,333.950653 1256.982056,334.563965 1258.798706,334.925079 
M1214.199219,391.585815 
	C1214.076904,405.171844 1213.861328,418.757996 1213.884521,432.343781 
	C1213.892212,436.877075 1214.510620,441.409302 1214.973022,446.822388 
	C1216.671997,456.408173 1217.722900,466.168610 1220.246338,475.532196 
	C1222.944824,485.545532 1231.017822,491.939087 1239.797241,491.911957 
	C1249.380249,491.882355 1256.228271,487.449646 1260.240234,478.306244 
	C1264.817017,467.875031 1265.146484,456.829498 1266.916992,445.647644 
	C1267.179810,445.088409 1267.670410,444.529968 1267.672363,443.969788 
	C1267.727905,427.734924 1267.763062,411.499695 1267.682007,395.265198 
	C1267.676880,394.224762 1266.710693,393.189117 1265.977173,391.233154 
	C1264.954224,382.797882 1264.583740,374.215179 1262.720825,365.969696 
	C1260.935181,358.066101 1257.851318,349.849731 1249.021729,347.281433 
	C1234.850586,343.159485 1225.631104,347.178711 1220.319946,362.459137 
	C1217.167114,371.529999 1216.586792,381.494965 1214.199219,391.585815 
z" />
	<path fill="#2CB1BC" opacity="1.000000" stroke="none" d="
M1831.808594,422.808228 
	C1834.207031,432.253052 1835.853638,441.973328 1839.188110,451.075256 
	C1843.680542,463.337799 1850.807007,473.926788 1865.075806,476.376190 
	C1874.089111,477.923401 1883.207275,477.730530 1891.103394,472.318329 
	C1896.480103,468.632904 1901.576660,464.433319 1906.323486,459.959686 
	C1913.010620,453.657410 1914.073486,453.469299 1921.104736,460.764893 
	C1917.793823,465.104919 1914.612183,469.743896 1910.957886,473.974731 
	C1901.251099,485.213226 1890.962402,495.976562 1876.013916,499.982513 
	C1848.619751,507.323853 1823.860840,503.028687 1802.886230,482.604218 
	C1789.423950,469.494965 1783.152710,453.386444 1781.961426,434.991882 
	C1781.512939,428.068848 1780.968384,421.127838 1781.035400,414.200470 
	C1781.201904,396.988220 1784.073730,380.145508 1794.092651,365.858612 
	C1805.276123,349.910919 1819.959473,338.367706 1840.006592,334.865875 
	C1850.944702,332.955170 1861.705933,333.815186 1872.180054,336.379913 
	C1878.145386,337.840546 1883.913940,341.205017 1889.049072,344.756195 
	C1906.837524,357.057617 1915.448730,374.811798 1918.080078,395.867249 
	C1918.767456,401.366852 1919.658569,406.841034 1920.562012,413.054932 
	C1896.221924,413.054932 1872.632568,413.054932 1848.110107,412.976562 
	C1841.828491,412.898224 1836.480225,412.898224 1830.545898,412.898224 
	C1831.035889,416.744385 1831.422241,419.776306 1831.808594,422.808228 
M1830.421997,399.608154 
	C1845.077026,399.722290 1859.731934,399.846558 1874.387085,399.908783 
	C1874.903931,399.910980 1875.423340,399.297485 1875.994019,398.091980 
	C1875.647339,394.516571 1875.334961,390.937439 1874.946899,387.366516 
	C1873.961792,378.298096 1873.789429,369.037231 1871.745239,360.211578 
	C1868.410278,345.813873 1859.355591,344.016663 1846.681641,347.150909 
	C1844.509644,347.688019 1842.382202,349.781799 1840.948853,351.692535 
	C1834.599609,360.155853 1833.081055,370.225800 1831.996094,380.389008 
	C1831.339111,386.542755 1830.674561,392.695770 1830.421997,399.608154 
z" />
	<path fill="#2CB1BC" opacity="1.000000" stroke="none" d="
M2002.850708,464.944946 
	C2003.251465,468.514160 2003.542480,472.099884 2004.077515,475.648834 
	C2004.972412,481.583954 2007.634521,485.969543 2014.195068,487.007568 
	C2016.377930,487.352936 2018.421875,488.553223 2020.604126,488.929932 
	C2027.420898,490.106567 2027.434692,490.026398 2026.618774,497.730957 
	C1995.966919,497.730957 1965.285034,497.730957 1934.268799,497.730957 
	C1934.268799,495.052765 1934.268799,492.313507 1934.268799,489.046814 
	C1942.147095,489.145813 1948.320190,486.071991 1951.237793,477.121765 
	C1952.134888,471.597534 1952.801636,466.645569 1952.816528,461.691589 
	C1952.912476,429.810669 1952.906738,397.929169 1952.791382,366.048401 
	C1952.781738,363.381836 1951.721436,360.719116 1951.149414,358.054626 
	C1949.918457,352.500977 1945.929443,349.014801 1940.849731,348.689758 
	C1933.595703,348.225586 1933.330444,344.209747 1934.507446,338.465881 
	C1956.620361,338.026093 1978.191772,338.026093 2000.064209,338.026093 
	C2000.064209,347.299835 2000.064209,355.733826 2000.064209,364.167847 
	C2000.369263,364.298340 2000.674194,364.428864 2000.979248,364.559387 
	C2001.660400,363.266205 2002.341553,361.973022 2003.022705,360.679871 
	C2010.280151,353.679840 2017.095581,346.118347 2024.977783,339.911560 
	C2029.051392,336.703888 2034.888794,335.283112 2040.164551,334.174927 
	C2046.144897,332.918701 2052.497314,333.173615 2058.176270,335.756470 
	C2067.409912,339.956085 2073.903809,346.251038 2075.271973,357.286835 
	C2076.633545,368.267792 2071.880615,377.475220 2066.152588,381.010590 
	C2057.570557,386.307526 2046.057373,386.402161 2036.904297,377.352203 
	C2033.870605,374.352692 2031.256470,370.933228 2028.305420,367.844421 
	C2024.938721,364.320404 2019.658447,363.808014 2015.834473,366.862122 
	C2009.353760,372.038300 2005.561157,378.916992 2004.056274,387.049286 
	C2003.617310,389.421844 2003.333618,391.823059 2002.587646,394.896729 
	C2002.157104,405.058441 2002.117920,414.534576 2002.078613,424.010681 
	C2002.055908,427.035522 2002.033325,430.060333 2002.013428,434.005249 
	C2002.011475,441.061707 2001.905029,447.200317 2002.039062,453.333649 
	C2002.123779,457.208160 2002.567871,461.074768 2002.850708,464.944946 
z" />
	<path fill="#2CB1BC" opacity="1.000000" stroke="none" d="
M1630.944580,383.040924 
	C1626.351807,374.914764 1622.634766,366.098297 1616.924561,358.852844 
	C1610.985474,351.317078 1602.277954,347.417847 1592.183838,346.934082 
	C1585.571655,346.617157 1579.404175,346.547455 1574.190796,351.425934 
	C1562.915161,361.977661 1566.193848,375.833221 1577.300293,382.838196 
	C1588.675171,390.012543 1601.014282,395.665710 1612.973511,401.903992 
	C1628.820923,410.170532 1642.829590,420.119812 1647.490967,438.823364 
	C1651.475708,454.812683 1647.757568,469.167847 1638.225952,482.273956 
	C1627.449951,497.091064 1612.776245,503.161255 1594.611572,503.194702 
	C1582.179443,503.217590 1570.581543,500.527130 1559.059570,496.548523 
	C1556.453491,495.648682 1553.842407,494.650330 1551.149658,494.145874 
	C1548.362427,493.623779 1545.848389,493.761749 1543.983032,496.917877 
	C1539.920898,503.790802 1539.722046,503.673309 1531.226807,502.507660 
	C1531.226807,483.938507 1531.226807,465.336731 1531.226807,446.227936 
	C1532.770142,446.154236 1534.388184,446.250885 1535.937622,445.969849 
	C1540.284302,445.181274 1541.744751,447.405365 1543.112305,451.234344 
	C1545.594971,458.185089 1548.158569,465.325714 1552.093140,471.490540 
	C1558.913940,482.177277 1569.402710,487.632690 1581.874512,490.127502 
	C1590.810181,491.914978 1598.657104,489.417542 1606.113647,485.624359 
	C1608.817261,484.248993 1611.079346,480.236084 1611.801514,477.033936 
	C1615.381104,461.162628 1611.986206,455.111206 1597.541016,447.290344 
	C1586.880737,441.518799 1575.784058,436.559875 1565.014404,430.982727 
	C1554.870117,425.729523 1545.772949,419.111053 1539.076904,409.590302 
	C1527.419312,393.014832 1528.435303,370.512421 1539.578857,354.844452 
	C1549.347900,341.109131 1562.724731,334.152802 1579.949219,333.837891 
	C1594.080444,333.579468 1607.327515,337.415527 1620.794189,340.440704 
	C1625.351562,341.464539 1628.838989,340.822021 1630.836182,336.284546 
	C1632.691162,332.070160 1636.346313,334.679230 1639.548828,334.507446 
	C1639.978027,351.255066 1639.978027,367.462311 1639.978027,384.410767 
	C1636.384399,383.865814 1633.664551,383.453369 1630.944580,383.040924 
z" />
	<path fill="#2CB1BC" opacity="1.000000" stroke="none" d="
M1730.899048,466.108398 
	C1730.899048,466.108398 1731.072388,466.404694 1730.940674,466.944153 
	C1731.234131,468.329498 1731.659302,469.175385 1732.084473,470.021301 
	C1732.084351,470.021332 1732.004883,469.998657 1731.969971,470.254272 
	C1732.255981,470.711456 1732.576782,470.913025 1732.897583,471.114563 
	C1736.480469,478.352692 1747.535278,479.660248 1752.833984,473.267273 
	C1755.499146,470.051758 1757.981079,466.561768 1759.865479,462.850403 
	C1762.661011,457.344421 1766.138672,461.197632 1768.906250,462.212677 
	C1769.980835,462.606720 1770.953491,466.646454 1770.201416,468.123901 
	C1763.950928,480.403717 1756.117432,491.158508 1743.188721,497.648163 
	C1728.938110,504.801239 1714.950806,504.455078 1700.294678,499.255920 
	C1689.654541,495.481415 1680.503540,481.806366 1682.033813,471.144165 
	C1682.039185,433.749756 1682.020630,397.266266 1681.941284,360.782898 
	C1681.937134,358.862579 1681.416748,356.943359 1681.136841,355.023621 
	C1681.136841,355.023621 1680.972534,354.659332 1680.799805,354.056732 
	C1675.178589,353.134369 1669.730347,352.814606 1663.971191,352.476624 
	C1663.971191,348.945435 1663.971191,345.851135 1663.971191,342.756836 
	C1665.656616,340.924316 1667.342041,339.091827 1669.642090,337.062500 
	C1670.500244,336.548401 1670.743652,336.231110 1670.987061,335.913818 
	C1670.987061,335.913849 1670.987061,335.986328 1671.264526,335.977173 
	C1671.682617,335.616730 1671.823364,335.265442 1671.963989,334.914154 
	C1671.963989,334.914154 1671.985718,334.985779 1672.268555,334.993835 
	C1672.688843,334.639343 1672.826172,334.276825 1672.963501,333.914307 
	C1672.963501,333.914307 1672.985840,333.985901 1673.268677,333.993896 
	C1673.688843,333.639343 1673.826172,333.276825 1673.963501,332.914276 
	C1673.963501,332.914276 1673.985840,332.985901 1674.268677,332.993958 
	C1674.688843,332.639465 1674.826050,332.276886 1674.963379,331.914276 
	C1674.963379,331.914276 1674.985840,331.985901 1675.268677,331.994019 
	C1675.688843,331.639496 1675.826172,331.276886 1675.963379,330.914307 
	C1675.963379,330.914276 1675.985840,330.985901 1676.268677,330.994019 
	C1676.688721,330.639496 1676.826050,330.276886 1676.963379,329.914276 
	C1676.963379,329.914276 1676.985840,329.985901 1677.268677,329.994019 
	C1677.688843,329.639526 1677.826050,329.276886 1677.963379,328.914276 
	C1677.963379,328.914276 1677.985840,328.985901 1678.268677,328.994019 
	C1678.688843,328.639526 1678.826172,328.276917 1678.963379,327.914276 
	C1678.963379,327.914276 1678.986328,327.986145 1679.283936,328.002136 
	C1679.703857,327.650818 1679.826172,327.283478 1679.948486,326.916138 
	C1679.948486,326.916138 1679.990601,326.990784 1680.295166,327.041962 
	C1680.715576,326.700958 1680.831543,326.308746 1680.947510,325.916534 
	C1680.947510,325.916534 1680.990723,325.990845 1681.295166,326.041901 
	C1681.715454,325.700806 1681.831543,325.308685 1681.947632,324.916565 
	C1681.947632,324.916565 1681.990723,324.990967 1682.294922,325.041779 
	C1682.715332,324.700562 1682.831421,324.308533 1682.947510,323.916504 
	C1682.947632,323.916534 1682.990723,323.990814 1683.294922,324.041565 
	C1683.715454,323.700378 1683.831543,323.308472 1683.947754,322.916534 
	C1683.947754,322.916534 1683.990479,322.990570 1684.281738,323.035339 
	C1684.702515,322.691711 1684.832153,322.303284 1684.961670,321.914856 
	C1684.961670,321.914856 1684.986084,321.986053 1685.268799,321.994080 
	C1685.688843,321.639526 1685.826172,321.276917 1685.963379,320.914276 
	C1685.963379,320.914276 1685.985840,320.985901 1686.268677,320.994019 
	C1686.688721,320.639496 1686.826050,320.276886 1686.963379,319.914246 
	C1686.963379,319.914276 1686.985840,319.985901 1687.268799,319.994019 
	C1687.688843,319.639557 1687.826172,319.276917 1687.963379,318.914307 
	C1687.963379,318.914276 1687.985840,318.985901 1688.268677,318.994019 
	C1688.688843,318.639526 1688.826050,318.276886 1688.963379,317.914276 
	C1688.963379,317.914276 1688.985840,317.985901 1689.268677,317.994019 
	C1689.688843,317.639526 1689.826172,317.276917 1689.963379,316.914307 
	C1689.963379,316.914276 1689.985840,316.985901 1690.268677,316.994019 
	C1690.688721,316.639496 1690.826050,316.276886 1690.963379,315.914246 
	C1690.963379,315.914276 1690.985840,315.985687 1691.263428,315.991882 
	C1691.687622,315.635834 1691.834229,315.273560 1691.980835,314.911316 
	C1691.980835,314.911316 1692.004150,314.992371 1692.224609,314.882629 
	C1692.909058,314.234497 1693.373169,313.696075 1693.837402,313.157715 
	C1701.517822,302.915314 1709.186768,292.664246 1716.884521,282.434875 
	C1719.796021,278.565948 1724.014648,278.861938 1728.592285,279.548279 
	C1729.009644,297.376099 1728.975220,314.681763 1729.047241,331.987000 
	C1729.054199,333.664764 1729.719971,335.339783 1730.080078,337.016083 
	C1730.080078,337.016083 1729.986816,337.013245 1730.207520,337.334900 
	C1740.833496,337.656555 1751.238647,337.656555 1761.685791,337.656555 
	C1761.685791,343.341980 1761.685791,347.921417 1761.685791,353.000488 
	C1752.593262,353.000488 1743.804932,352.944763 1735.018555,353.049225 
	C1733.336548,353.069244 1731.661987,353.720215 1729.984009,354.080139 
	C1729.984009,354.080139 1729.986694,353.986816 1729.665161,354.207581 
	C1729.311890,378.307312 1729.280273,402.186310 1729.196899,426.526794 
	C1729.132812,437.227997 1728.994019,447.470215 1729.190552,457.705933 
	C1729.244385,460.516663 1730.302002,463.308105 1730.899048,466.108398 
z" />
	<path fill="#FFFFFF" opacity="1.000000" stroke="none" d="
M1951.080078,358.516663 
	C1951.721436,360.719116 1952.781738,363.381836 1952.791382,366.048401 
	C1952.906738,397.929169 1952.912476,429.810669 1952.816528,461.691589 
	C1952.801636,466.645569 1952.134888,471.597534 1951.437134,476.818481 
	C1951.073486,437.717255 1951.042114,398.347961 1951.080078,358.516663 
z" />
	<path fill="#DDEFF1" opacity="1.000000" stroke="none" d="
M1055.981445,282.418457 
	C1057.252930,287.143799 1059.749146,292.252014 1059.794556,297.382019 
	C1060.129883,335.156128 1059.983032,372.934631 1059.972656,410.711731 
	C1059.968140,426.853760 1059.926758,442.995758 1059.600586,459.597595 
	C1059.298950,460.057434 1058.901245,459.965454 1058.901245,459.965454 
	C1058.937500,418.748230 1059.070435,377.530792 1058.959961,336.313934 
	C1058.918823,320.944244 1058.385376,305.573547 1057.881958,290.209686 
	C1057.800537,287.726501 1056.700439,285.276703 1055.981445,282.418457 
z" />
	<path fill="#FFFFFF" opacity="1.000000" stroke="none" d="
M1350.948242,282.459595 
	C1351.603760,284.546967 1352.906372,287.089111 1352.914307,289.635284 
	C1353.074097,341.159851 1353.086426,392.684906 1353.124146,444.209869 
	C1353.127808,449.196136 1353.104248,454.182404 1353.032471,459.641052 
	C1352.647583,458.441284 1352.042480,456.769379 1352.040649,455.096832 
	C1351.989624,408.283112 1352.059814,361.469269 1351.953857,314.655731 
	C1351.929932,304.075226 1351.328247,293.496063 1350.948242,282.459595 
z" />
	<path fill="#2CB1BC" opacity="1.000000" stroke="none" d="
M1681.085693,355.489319 
	C1681.416748,356.943359 1681.937134,358.862579 1681.941284,360.782898 
	C1682.020630,397.266266 1682.039185,433.749756 1682.021484,470.712952 
	C1681.633667,470.043488 1680.999146,468.894531 1680.998413,467.745087 
	C1680.972778,430.481750 1681.008301,393.218384 1681.085693,355.489319 
z" />
	<path fill="#D7ECEF" opacity="1.000000" stroke="none" d="
M2002.593994,360.796814 
	C2002.341553,361.973022 2001.660400,363.266205 2000.979248,364.559387 
	C2000.674194,364.428864 2000.369263,364.298340 2000.064209,364.167847 
	C2000.064209,355.733826 2000.064209,347.299835 2000.064209,338.026093 
	C1978.191772,338.026093 1956.620361,338.026093 1934.589111,338.020203 
	C1934.416504,337.697296 1934.703247,337.103241 1934.991089,337.102661 
	C1956.873779,337.059540 1978.756592,337.063202 2000.997803,337.063202 
	C2000.997803,343.807129 2000.929565,350.244781 2001.050903,356.678864 
	C2001.077515,358.096985 2001.776123,359.502441 2002.593994,360.796814 
z" />
	<path fill="#FFFFFF" opacity="1.000000" stroke="none" d="
M1058.518555,460.176758 
	C1058.901245,459.965454 1059.298950,460.057434 1059.502686,460.060852 
	C1059.399902,475.572510 1061.480835,491.177582 1057.484741,506.745972 
	C1057.477295,491.424042 1057.806519,475.906067 1058.518555,460.176758 
z" />
	<path fill="#D4EBEE" opacity="1.000000" stroke="none" d="
M1730.453613,354.043945 
	C1731.661987,353.720215 1733.336548,353.069244 1735.018555,353.049225 
	C1743.804932,352.944763 1752.593262,353.000488 1761.685791,353.000488 
	C1761.685791,347.921417 1761.685791,343.341980 1761.685791,337.656555 
	C1751.238647,337.656555 1740.833496,337.656555 1730.205811,337.288269 
	C1740.768188,336.919983 1751.553101,336.919983 1762.668945,336.919983 
	C1762.668945,342.576263 1762.668945,348.091553 1762.668945,354.007812 
	C1752.078979,354.007812 1741.501099,354.007812 1730.453613,354.043945 
z" />
	<path fill="#F7FBFC" opacity="1.000000" stroke="none" d="
M1730.950195,465.629395 
	C1730.302002,463.308105 1729.244385,460.516663 1729.190552,457.705933 
	C1728.994019,447.470215 1729.132812,437.227997 1729.414062,426.514954 
	C1729.683105,426.041656 1730.109741,425.951416 1730.109741,425.951416 
	C1730.409668,427.452515 1730.960571,428.952087 1730.969604,430.454956 
	C1731.039429,442.019775 1731.004028,453.585175 1730.950195,465.629395 
z" />
	<path fill="#D4EBEE" opacity="1.000000" stroke="none" d="
M1730.059937,425.488220 
	C1730.109741,425.951416 1729.683105,426.041656 1729.465820,426.053467 
	C1729.280273,402.186310 1729.311890,378.307312 1729.711792,354.205872 
	C1730.056641,377.663940 1730.033325,401.344452 1730.059937,425.488220 
z" />
	<path fill="#FFFFFF" opacity="1.000000" stroke="none" d="
M1116.467529,367.815552 
	C1116.117676,344.534546 1116.156860,321.058136 1116.524170,297.320679 
	C1116.853760,320.579773 1116.855103,344.100006 1116.467529,367.815552 
z" />
	<path fill="#ACD8DD" opacity="1.000000" stroke="none" d="
M1630.971802,383.476074 
	C1633.664551,383.453369 1636.384399,383.865814 1639.978027,384.410767 
	C1639.978027,367.462311 1639.978027,351.255066 1639.981445,334.587677 
	C1640.300415,334.420776 1640.891479,334.713318 1640.892334,335.007416 
	C1640.936646,351.549042 1640.931763,368.090759 1640.931763,385.496552 
	C1637.353882,384.925507 1634.176392,384.418365 1630.971802,383.476074 
z" />
	<path fill="#D4EBEE" opacity="1.000000" stroke="none" d="
M1730.043945,336.546509 
	C1729.719971,335.339783 1729.054199,333.664764 1729.047241,331.987000 
	C1728.975220,314.681763 1729.009644,297.376099 1729.030396,279.612427 
	C1729.364502,280.608368 1729.953979,282.061462 1729.959473,283.516785 
	C1730.025635,301.036652 1730.005371,318.556824 1730.043945,336.546509 
z" />
	<path fill="#FFFFFF" opacity="1.000000" stroke="none" d="
M2002.919922,464.482941 
	C2002.567871,461.074768 2002.123779,457.208160 2002.039062,453.333649 
	C2001.905029,447.200317 2002.011475,441.061707 2002.047363,434.457336 
	C2002.385742,435.630951 2002.941284,437.270020 2002.958374,438.914673 
	C2003.045288,447.282623 2002.992798,455.652039 2002.919922,464.482941 
z" />
	<path fill="#FFFFFF" opacity="1.000000" stroke="none" d="
M2002.467529,423.815369 
	C2002.117920,414.534576 2002.157104,405.058441 2002.524414,395.321045 
	C2002.853760,404.579865 2002.855103,414.099945 2002.467529,423.815369 
z" />
	<path fill="#2CB1BC" opacity="1.000000" stroke="none" d="
M1663.620239,343.027161 
	C1663.971191,345.851135 1663.971191,348.945435 1663.971191,352.476624 
	C1669.730347,352.814606 1675.178589,353.134369 1680.802246,353.856934 
	C1675.197510,354.259766 1669.417480,354.259766 1663.269287,354.259766 
	C1663.269287,350.394409 1663.269287,346.845947 1663.620239,343.027161 
z" />
	<path fill="#FAFDFD" opacity="1.000000" stroke="none" d="
M1831.861328,422.366119 
	C1831.422241,419.776306 1831.035889,416.744385 1830.545898,412.898224 
	C1836.480225,412.898224 1841.828491,412.898224 1847.649170,412.961792 
	C1844.687378,413.352264 1841.257080,413.733276 1837.817505,413.983582 
	C1836.055542,414.111816 1834.276489,414.006104 1831.914062,414.006104 
	C1831.914062,416.812561 1831.914062,419.368286 1831.861328,422.366119 
z" />
	<path fill="#DBEEF0" opacity="1.000000" stroke="none" d="
M1693.581543,313.249451 
	C1693.373169,313.696075 1692.909058,314.234497 1692.183838,314.893982 
	C1692.390503,314.457123 1692.858154,313.899170 1693.581543,313.249451 
z" />
	<path fill="#F7FBFC" opacity="1.000000" stroke="none" d="
M1732.031616,469.649841 
	C1731.659302,469.175385 1731.234131,468.329498 1730.895386,467.109680 
	C1731.314087,467.583313 1731.646362,468.430847 1732.031616,469.649841 
z" />
	<path fill="#FFFFFF" opacity="1.000000" stroke="none" d="
M1350.080200,279.399200 
	C1350.535156,279.851898 1350.920410,280.651062 1351.121216,281.760315 
	C1350.627930,281.295471 1350.319214,280.520569 1350.080200,279.399200 
z" />
	<path fill="#DBEEF0" opacity="1.000000" stroke="none" d="
M1689.691895,316.971252 
	C1689.826172,317.276917 1689.688843,317.639526 1689.232910,317.982910 
	C1689.083008,317.651825 1689.251709,317.340027 1689.691895,316.971252 
z" />
	<path fill="#F7FBFC" opacity="1.000000" stroke="none" d="
M1732.934082,470.821808 
	C1732.576782,470.913025 1732.255981,470.711456 1731.982178,470.214844 
	C1732.343140,470.122864 1732.656860,470.325958 1732.934082,470.821808 
z" />
	<path fill="#DBEEF0" opacity="1.000000" stroke="none" d="
M1691.706055,314.967468 
	C1691.834229,315.273560 1691.687622,315.635834 1691.227661,315.981079 
	C1691.086548,315.650574 1691.259033,315.337128 1691.706055,314.967468 
z" />
	<path fill="#DBEEF0" opacity="1.000000" stroke="none" d="
M1673.691895,332.971191 
	C1673.826172,333.276825 1673.688843,333.639343 1673.232910,333.982788 
	C1673.082886,333.651825 1673.251709,333.339966 1673.691895,332.971191 
z" />
	<path fill="#DBEEF0" opacity="1.000000" stroke="none" d="
M1681.681274,324.973175 
	C1681.831543,325.308685 1681.715454,325.700806 1681.258057,326.020264 
	C1681.082642,325.641632 1681.248779,325.335724 1681.681274,324.973175 
z" />
	<path fill="#DBEEF0" opacity="1.000000" stroke="none" d="
M1680.681152,325.973145 
	C1680.831543,326.308746 1680.715576,326.700958 1680.258057,327.020325 
	C1680.082642,326.641602 1680.248779,326.335693 1680.681152,325.973145 
z" />
	<path fill="#DBEEF0" opacity="1.000000" stroke="none" d="
M1679.679932,326.974121 
	C1679.826172,327.283478 1679.703857,327.650818 1679.248047,327.989868 
	C1679.080322,327.651764 1679.245850,327.341949 1679.679932,326.974121 
z" />
	<path fill="#DBEEF0" opacity="1.000000" stroke="none" d="
M1678.691895,327.971252 
	C1678.826172,328.276917 1678.688843,328.639526 1678.232910,328.982849 
	C1678.082886,328.651794 1678.251587,328.339996 1678.691895,327.971252 
z" />
	<path fill="#DBEEF0" opacity="1.000000" stroke="none" d="
M1677.691895,328.971222 
	C1677.826050,329.276886 1677.688843,329.639526 1677.232910,329.982849 
	C1677.082886,329.651764 1677.251587,329.339966 1677.691895,328.971222 
z" />
	<path fill="#DBEEF0" opacity="1.000000" stroke="none" d="
M1676.691895,329.971252 
	C1676.826050,330.276886 1676.688721,330.639496 1676.232910,330.982880 
	C1676.083008,330.651825 1676.251709,330.340027 1676.691895,329.971252 
z" />
	<path fill="#DBEEF0" opacity="1.000000" stroke="none" d="
M1675.691895,330.971252 
	C1675.826172,331.276886 1675.688843,331.639496 1675.232910,331.982849 
	C1675.082886,331.651794 1675.251587,331.339996 1675.691895,330.971252 
z" />
	<path fill="#DBEEF0" opacity="1.000000" stroke="none" d="
M1674.691895,331.971252 
	C1674.826050,332.276886 1674.688843,332.639465 1674.232910,332.982849 
	C1674.082886,332.651825 1674.251587,332.340027 1674.691895,331.971252 
z" />
	<path fill="#DBEEF0" opacity="1.000000" stroke="none" d="
M1683.681274,322.973145 
	C1683.831543,323.308472 1683.715454,323.700378 1683.257812,324.019958 
	C1683.082520,323.641663 1683.248657,323.335693 1683.681274,322.973145 
z" />
	<path fill="#DBEEF0" opacity="1.000000" stroke="none" d="
M1690.691772,315.971191 
	C1690.826050,316.276886 1690.688721,316.639496 1690.232788,316.982819 
	C1690.082764,316.651733 1690.251465,316.339935 1690.691772,315.971191 
z" />
	<path fill="#DBEEF0" opacity="1.000000" stroke="none" d="
M1684.692627,321.970154 
	C1684.832153,322.303284 1684.702515,322.691711 1684.244507,323.014343 
	C1684.085205,322.640839 1684.254272,322.333130 1684.692627,321.970154 
z" />
	<path fill="#DBEEF0" opacity="1.000000" stroke="none" d="
M1685.691895,320.971252 
	C1685.826172,321.276917 1685.688843,321.639526 1685.232910,321.982880 
	C1685.082886,321.651825 1685.251587,321.340027 1685.691895,320.971252 
z" />
	<path fill="#DBEEF0" opacity="1.000000" stroke="none" d="
M1686.691895,319.971252 
	C1686.826050,320.276886 1686.688721,320.639496 1686.232910,320.982849 
	C1686.083008,320.651825 1686.251709,320.340027 1686.691895,319.971252 
z" />
	<path fill="#DBEEF0" opacity="1.000000" stroke="none" d="
M1672.691895,333.971222 
	C1672.826172,334.276825 1672.688843,334.639343 1672.232910,334.982758 
	C1672.082886,334.651825 1672.251709,334.339996 1672.691895,333.971222 
z" />
	<path fill="#DBEEF0" opacity="1.000000" stroke="none" d="
M1671.691406,334.972229 
	C1671.823364,335.265442 1671.682617,335.616730 1671.229004,335.970337 
	C1671.083496,335.658539 1671.251099,335.344421 1671.691406,334.972229 
z" />
	<path fill="#DBEEF0" opacity="1.000000" stroke="none" d="
M1670.684082,335.984802 
	C1670.743652,336.231110 1670.500244,336.548401 1669.929199,336.946289 
	C1669.861450,336.703217 1670.121216,336.379486 1670.684082,335.984802 
z" />
	<path fill="#DBEEF0" opacity="1.000000" stroke="none" d="
M1687.691895,318.971252 
	C1687.826172,319.276917 1687.688843,319.639557 1687.232910,319.982880 
	C1687.082886,319.651794 1687.251587,319.339996 1687.691895,318.971252 
z" />
	<path fill="#DBEEF0" opacity="1.000000" stroke="none" d="
M1688.691895,317.971252 
	C1688.826050,318.276886 1688.688843,318.639526 1688.232910,318.982880 
	C1688.082886,318.651825 1688.251587,318.340027 1688.691895,317.971252 
z" />
	<path fill="#DBEEF0" opacity="1.000000" stroke="none" d="
M1682.681152,323.973145 
	C1682.831421,324.308533 1682.715332,324.700562 1682.257812,325.020081 
	C1682.082642,324.641663 1682.248779,324.335724 1682.681152,323.973145 
z" />
	<path fill="#FFFFFF" opacity="1.000000" stroke="none" d="
M194.418198,481.554840 
	C188.449280,465.196777 186.749405,448.551422 186.403854,431.276764 
	C214.671280,431.276764 242.900589,431.276764 271.247925,431.276764 
	C272.152039,438.232086 272.802460,445.317535 274.031281,452.301270 
	C277.801331,473.726959 291.760315,486.799683 313.512268,488.996674 
	C320.065002,489.658569 326.785583,489.699493 333.342590,489.090881 
	C356.695892,486.923218 372.506714,467.337311 375.866486,446.849945 
	C377.152863,439.005920 377.899292,430.979462 377.911194,423.034698 
	C378.049286,330.881378 377.999542,238.727798 377.999603,146.574280 
	C377.999603,144.618423 377.999603,142.662552 377.999603,140.420105 
	C406.426086,140.420105 434.340515,140.420105 462.603027,140.420105 
	C462.738373,141.730072 462.983856,142.996323 462.983795,144.262558 
	C462.978851,239.915421 463.269104,335.569733 462.820068,431.220612 
	C462.524963,494.085266 419.394226,543.977112 357.605530,555.066101 
	C327.690552,560.434875 298.069580,559.244995 269.184387,550.566528 
	C233.560318,539.863464 207.572601,517.695374 194.418198,481.554840 
z" />
	<path fill="#FFFFFF00" opacity="1.000000" stroke="none" d="
M1402.827393,371.141296 
	C1406.259277,364.084473 1410.493774,357.700378 1418.496826,355.293915 
	C1431.962524,351.244965 1444.920532,355.149933 1449.800293,369.546722 
	C1453.061157,379.167358 1454.662476,389.350433 1457.030273,400.160767 
	C1457.092407,414.985077 1457.130859,428.930359 1457.169189,442.875671 
	C1455.569702,453.961670 1453.435547,464.868408 1448.961792,475.273407 
	C1442.123169,491.178650 1425.258545,496.387817 1412.506348,486.833344 
	C1408.608032,483.912567 1406.807617,478.191437 1404.019531,472.938416 
	C1403.662476,465.400726 1403.086182,458.678802 1403.045532,451.953644 
	C1402.882446,425.016754 1402.885620,398.078827 1402.827393,371.141296 
z" />
	<path fill="#FDFEFE" opacity="1.000000" stroke="none" d="
M1402.540894,371.431610 
	C1402.885620,398.078827 1402.882446,425.016754 1403.045532,451.953644 
	C1403.086182,458.678802 1403.662476,465.400726 1403.932129,472.569458 
	C1403.289795,471.184906 1402.204590,469.355957 1402.201050,467.524872 
	C1402.140137,435.590729 1402.211670,403.656281 1402.540894,371.431610 
z" />
	<path fill="#F6FBFB" opacity="1.000000" stroke="none" d="
M1457.446289,442.578949 
	C1457.130859,428.930359 1457.092407,414.985077 1457.111572,400.582703 
	C1457.441284,401.205597 1457.951660,402.286133 1457.949097,403.365417 
	C1457.917847,416.337799 1457.810547,429.309998 1457.446289,442.578949 
z" />
	<path fill="#FFFFFF00" opacity="1.000000" stroke="none" d="
M1266.189575,445.839996 
	C1265.146484,456.829498 1264.817017,467.875031 1260.240234,478.306244 
	C1256.228271,487.449646 1249.380249,491.882355 1239.797241,491.911957 
	C1231.017822,491.939087 1222.944824,485.545532 1220.246338,475.532196 
	C1217.722900,466.168610 1216.671997,456.408173 1214.981201,445.920227 
	C1214.942871,427.031372 1214.896362,409.044647 1214.849854,391.057953 
	C1216.586792,381.494965 1217.167114,371.529999 1220.319946,362.459137 
	C1225.631104,347.178711 1234.850586,343.159485 1249.021729,347.281433 
	C1257.851318,349.849731 1260.935181,358.066101 1262.720825,365.969696 
	C1264.583740,374.215179 1264.954224,382.797882 1266.263062,392.062775 
	C1266.429199,410.541595 1266.309448,428.190796 1266.189575,445.839996 
z" />
	<path fill="#F5FAFB" opacity="1.000000" stroke="none" d="
M1266.553223,445.743835 
	C1266.309448,428.190796 1266.429199,410.541595 1266.370361,392.521851 
	C1266.710693,393.189117 1267.676880,394.224762 1267.682007,395.265198 
	C1267.763062,411.499695 1267.727905,427.734924 1267.672363,443.969788 
	C1267.670410,444.529968 1267.179810,445.088409 1266.553223,445.743835 
z" />
	<path fill="#FFFFFF" opacity="1.000000" stroke="none" d="
M1214.524536,391.321899 
	C1214.896362,409.044647 1214.942871,427.031372 1214.919556,445.480042 
	C1214.510620,441.409302 1213.892212,436.877075 1213.884521,432.343781 
	C1213.861328,418.757996 1214.076904,405.171844 1214.524536,391.321899 
z" />
	<path fill="#FFFFFF00" opacity="1.000000" stroke="none" d="
M1830.013428,398.849091 
	C1830.674561,392.695770 1831.339111,386.542755 1831.996094,380.389008 
	C1833.081055,370.225800 1834.599609,360.155853 1840.948853,351.692535 
	C1842.382202,349.781799 1844.509644,347.688019 1846.681641,347.150909 
	C1859.355591,344.016663 1868.410278,345.813873 1871.745239,360.211578 
	C1873.789429,369.037231 1873.961792,378.298096 1874.946899,387.366516 
	C1875.334961,390.937439 1875.647339,394.516571 1875.505493,398.544739 
	C1860.015747,398.947998 1845.014648,398.898560 1830.013428,398.849091 
z" />
	<path fill="#D5EBEE" opacity="1.000000" stroke="none" d="
M1830.217773,399.228638 
	C1845.014648,398.898560 1860.015747,398.947998 1875.479248,398.984192 
	C1875.423340,399.297485 1874.903931,399.910980 1874.387085,399.908783 
	C1859.731934,399.846558 1845.077026,399.722290 1830.217773,399.228638 
z" />
</svg>